<svg width="24" height="24" viewBox="0 0 24 24" fill="none" xmlns="http://www.w3.org/2000/svg">
<path d="M16 22H20C21.1046 22 22 21.1046 22 20V11C22 9.89543 21.1046 9 20 9H11C9.89543 9 9 9.89543 9 11V18.5" stroke="#191F2D" stroke-linecap="round" stroke-linejoin="round"/>
<path d="M5 15H4C3.46957 15 2.96086 14.7893 2.58579 14.4142C2.21071 14.0391 2 13.5304 2 13V4C2 3.46957 2.21071 2.96086 2.58579 2.58579C2.96086 2.21071 3.46957 2 4 2H13C13.5304 2 14.0391 2.21071 14.4142 2.58579C14.7893 2.96086 15 3.46957 15 4V5" stroke="#2663D8" stroke-linecap="round" stroke-linejoin="round"/>
<path fill-rule="evenodd" clip-rule="evenodd" d="M9.42866 17.3105C9.40325 18.0299 9.79691 19.3721 10.8581 19.1021C11.9194 18.8322 12.4254 19.1511 12.8421 19.6917C13.2588 20.2323 13.1477 21.8002 11.5799 21.9998C10.0121 22.1995 8.13308 21.8641 8.5431 17.2446" fill="#191F2D"/>
</svg>
