<svg width="15" height="15" viewBox="0 0 15 15" fill="none" xmlns="http://www.w3.org/2000/svg">
<path d="M12.7 1H2.3C1.58203 1 1 1.58203 1 2.3V4.9C1 5.61797 1.58203 6.2 2.3 6.2H12.7C13.418 6.2 14 5.61797 14 4.9V2.3C14 1.58203 13.418 1 12.7 1Z" stroke="#054CA0" stroke-linecap="round" stroke-linejoin="round"/>
<path d="M12.7 9H2.3C1.58203 9 1 9.58203 1 10.3V12.9C1 13.618 1.58203 14.2 2.3 14.2H12.7C13.418 14.2 14 13.618 14 12.9V10.3C14 9.58203 13.418 9 12.7 9Z" stroke="#191F2D" stroke-linecap="round" stroke-linejoin="round"/>
<path d="M3.59961 3.6001H3.60822" stroke="#191F2D" stroke-width="2" stroke-linecap="round" stroke-linejoin="round"/>
<path d="M3.59961 11.3999H3.60822" stroke="#191F2D" stroke-width="2" stroke-linecap="round" stroke-linejoin="round"/>
</svg>
