<svg width="24" height="24" viewBox="0 0 24 24" fill="none" xmlns="http://www.w3.org/2000/svg">
<path d="M21.9443 14.6667L21.9443 18.8889C21.9443 19.4488 21.7219 19.9858 21.326 20.3817C20.9301 20.7776 20.3931 21 19.8332 21L5.05545 21C4.49555 21 3.95858 20.7776 3.56267 20.3817C3.16676 19.9858 2.94434 19.4488 2.94434 18.8889L2.94434 16.9995" stroke="#3C3C3C" stroke-linecap="round" stroke-linejoin="round"/>
<path fill-rule="evenodd" clip-rule="evenodd" d="M3.32219 18.5567C3.27691 17.901 3.59994 16.6599 4.58865 16.8644C5.57736 17.0688 6.03526 16.7575 6.40385 16.2474C6.77243 15.7374 6.62225 14.3103 5.16767 14.1902C3.7131 14.0701 1.98712 14.4508 2.50598 18.652" fill="#3C3C3C"/>
<path d="M17.7225 9.38721L12.4448 14.665L7.16699 9.38721" stroke="#054CA0" stroke-linecap="round" stroke-linejoin="round"/>
<path d="M12.4443 14.6652L12.4443 1.99854" stroke="#054CA0" stroke-linecap="round" stroke-linejoin="round"/>
</svg>
