<svg width="1327" height="233" viewBox="0 0 1327 233" fill="none" xmlns="http://www.w3.org/2000/svg">
<rect width="233" height="233" rx="38" fill="white"/>
<g clip-path="url(#clip0_2894_316)">
<path d="M164.89 95.8198C165.1 110.13 164.53 124.37 159.07 137.9C151.56 156.52 136.99 167.28 118.6 173.58C116.96 174.14 114.68 173.52 112.9 172.88C86.6701 163.33 72.1601 144.47 69.6701 116.89C68.6101 105.2 69.1701 93.3698 69.0001 81.5898C68.9501 78.0998 70.6301 76.5398 74.2001 76.4898C89.0201 76.2898 102.35 72.0498 113.32 61.6898C115.9 59.2498 118.15 59.5498 120.67 61.9198C131.38 72.0098 144.42 76.2598 158.88 76.4398C163.22 76.4898 164.94 78.2898 164.9 82.3798C164.85 86.8598 164.89 91.3398 164.89 95.8198ZM132.97 99.5498C125.74 106.36 118.54 113.13 111.15 120.08C107.56 116.22 104.34 112.77 101.04 109.23C98.7901 111.25 96.9701 112.9 94.9601 114.71C97.2701 117.33 99.2801 119.73 101.42 122.01C111.36 132.59 109.06 133.35 120.62 122.58C126.75 116.87 132.79 111.07 139.26 104.95C136.99 103 135.23 101.49 132.98 99.5498H132.97Z" fill="black"/>
<path d="M132.97 99.5498C135.23 101.49 136.98 103 139.25 104.95C132.78 111.08 126.74 116.88 120.61 122.58C109.05 133.35 111.35 132.58 101.41 122.01C99.2702 119.73 97.2602 117.33 94.9502 114.71C96.9602 112.9 98.7902 111.25 101.03 109.23C104.33 112.77 107.54 116.22 111.14 120.08C118.53 113.13 125.72 106.36 132.96 99.5498H132.97Z" fill="white"/>
</g>
<path d="M355 48C374.8 48 391 64 391 84V151.8C391 171.6 374.8 188 355 188H317H303V48H323H355ZM371 151.8V84C371 75.2 364 68 355 68H323V167.8H355C363.8 167.8 371 160.6 371 151.8ZM472.422 48L506.422 142V188H486.422V155.6H438.422V188H418.422V142L452.422 48H472.422ZM462.222 79.6L442.022 135.6H482.822L462.622 79.6H462.222ZM621.844 48V68H587.844V188H567.844V68H533.844V48H587.844H621.844ZM703.266 48L737.266 142V188H717.266V155.6H669.266V188H649.266V142L683.266 48H703.266ZM693.066 79.6L672.866 135.6H713.666L693.466 79.6H693.066ZM852.688 48V68H818.688V188H798.688V68H764.688V48H818.688H852.688ZM968.109 96C968.109 112.6 957.109 126.4 941.909 130.6L968.109 188H946.109L920.709 132H900.109V188H880.109V48H900.109H932.109C952.109 48 968.109 64 968.109 84V96ZM948.109 96V84C948.109 75 941.109 68 932.109 68H900.109V112H932.109C941.109 112 948.109 105 948.109 96ZM1083.53 48V151.8C1083.53 171.6 1067.33 188 1047.53 188H1031.53C1011.53 188 995.531 171.6 995.531 151.8V48H1015.53V151.8C1015.53 160.6 1022.73 167.8 1031.53 167.8H1047.53C1056.33 167.8 1063.53 160.6 1063.53 151.8V48H1083.53ZM1110.95 142.8H1130.95V150.8C1130.95 160.2 1138.75 168 1148.15 168H1161.55C1171.75 168 1178.95 161.6 1178.95 152.8C1178.95 125.2 1112.95 119.2 1112.95 81.2C1112.95 61.6 1128.35 48 1150.15 48H1159.55C1180.15 48 1196.95 64.6 1196.95 85.2V91.2H1176.95V85.2C1176.95 75.6 1169.15 68 1159.55 68H1150.15C1139.35 68 1132.95 73 1132.95 81.2C1132.95 102.4 1198.95 110.6 1198.95 152.8C1198.95 172.8 1182.75 188 1161.55 188H1148.15C1127.55 188 1110.95 171.4 1110.95 150.8V142.8ZM1314.38 48V68H1280.38V188H1260.38V68H1226.38V48H1280.38H1314.38Z" fill="white"/>
<defs>
<clipPath id="clip0_2894_316">
<rect width="95.93" height="113.8" fill="white" transform="translate(69 60)"/>
</clipPath>
</defs>
</svg>
