<svg width="20" height="24" viewBox="0 0 20 24" fill="none" xmlns="http://www.w3.org/2000/svg">
<path d="M18.8951 5.39668C18.5643 5.2911 18.2105 5.47372 18.1049 5.80457L17.4066 7.99285C15.2753 4.02283 10.3293 2.53228 6.35925 4.66352C4.48827 5.66794 3.08264 7.36229 2.44096 9.38656C2.33539 9.71741 2.518 10.0712 2.84885 10.1768C3.17971 10.2824 3.53345 10.0997 3.63903 9.76887C4.80109 6.12987 8.6931 4.12186 12.3321 5.28392C14.1803 5.87407 15.6956 7.21329 16.5085 8.97484L13.5724 9.01277C13.2248 9.01704 12.9463 9.3023 12.9506 9.64995C12.9549 9.9976 13.2401 10.276 13.5878 10.2717L17.5644 10.2206C17.8358 10.2172 18.0744 10.04 18.1561 9.78112L19.3031 6.18688C19.4086 5.85605 19.226 5.50226 18.8951 5.39668Z" fill="#054CA0" stroke="white" stroke-width="0.25"/>
<path fill-rule="evenodd" clip-rule="evenodd" d="M4.34257 7.48117C3.98959 7.98722 3.65035 9.1416 4.54441 9.45274C5.43848 9.76389 5.65656 10.2348 5.70684 10.8227C5.75712 11.4106 4.94742 12.487 3.71929 11.8838C2.49115 11.2807 1.28645 10.1438 3.73196 7.01177" fill="#054CA0"/>
<path d="M17.6452 14.1828C17.3143 14.0773 16.9605 14.2599 16.855 14.5907C15.6929 18.2297 11.8009 20.2377 8.16185 19.0757C6.3137 18.4855 4.79841 17.1463 3.98551 15.3848L6.92159 15.3468C7.26924 15.3426 7.54765 15.0573 7.54338 14.7096C7.5391 14.362 7.25385 14.0836 6.9062 14.0879L2.92964 14.139C2.65821 14.1424 2.41961 14.3196 2.3379 14.5785L1.19094 18.1727C1.08536 18.5036 1.26798 18.8574 1.59883 18.9629C1.92968 19.0685 2.28347 18.8859 2.38905 18.555L3.08736 16.3667C5.21864 20.3368 10.1647 21.8274 14.1347 19.6961C16.0057 18.6916 17.4113 16.9973 18.053 14.973C18.1586 14.6422 17.976 14.2884 17.6452 14.1828Z" fill="#191F2D" stroke="white" stroke-width="0.25"/>
<path fill-rule="evenodd" clip-rule="evenodd" d="M16.4409 16.1275C16.7708 15.6969 17.1142 14.6962 16.341 14.3878C15.5679 14.0794 15.3948 13.6572 15.3737 13.1388C15.3527 12.6204 16.1062 11.7067 17.1613 12.2847C18.2164 12.8627 19.23 13.9087 16.9588 16.5638" fill="#191F2D"/>
</svg>
