<svg width="26" height="26" viewBox="0 0 26 26" fill="none" xmlns="http://www.w3.org/2000/svg">
<path d="M1.14082 11.5119C0.707295 14.3235 1.26608 17.2987 2.93736 19.8723C6.54691 25.4305 13.9789 27.0102 19.5371 23.4006C25.0953 19.7911 26.675 12.3591 23.0655 6.80092C19.4559 1.2427 12.024 -0.337013 6.46574 3.27254" stroke="#191F2D" stroke-linecap="round"/>
<path fill-rule="evenodd" clip-rule="evenodd" d="M9.16176 2.49522C8.39679 2.73336 7.1298 3.64754 7.7993 4.67848C8.4688 5.70941 8.31766 6.36609 7.90123 7.00923C7.48479 7.65237 5.79725 8.11203 5.0175 6.51559C4.23775 4.91916 3.90693 2.79385 8.90903 1.52759" fill="#191F2D"/>
<path fill-rule="evenodd" clip-rule="evenodd" d="M11.1206 9.117L17.7206 13.517L11.1206 17.917V9.117Z" stroke="#054CA0" stroke-linecap="round" stroke-linejoin="round"/>
</svg>
