<svg xmlns="http://www.w3.org/2000/svg" width="49.455" height="34.615" viewBox="0 0 49.455 34.615">
  <g id="salesforce" transform="translate(-272 -86)">
    <g id="salesforce-2" data-name="salesforce" transform="translate(271.5 85.5)">
      <path id="Path_688" data-name="Path 688" d="M21.08,4.275a8.666,8.666,0,0,1,6.271-2.693,8.756,8.756,0,0,1,7.63,4.523,10.544,10.544,0,0,1,4.312-.917,10.755,10.755,0,0,1,0,21.51,10.581,10.581,0,0,1-2.1-.209A7.794,7.794,0,0,1,26.981,29.7a8.892,8.892,0,0,1-16.53-.4,8.157,8.157,0,0,1-1.7.177A8.357,8.357,0,0,1,4.628,13.907,9.6,9.6,0,0,1,21.08,4.275" fill="#00a1e0"/>
      <path id="Path_689" data-name="Path 689" d="M144.982,285.6c-.031.081.011.1.021.112a2.883,2.883,0,0,0,.283.171,3.011,3.011,0,0,0,1.479.346c1.014,0,1.644-.54,1.644-1.408v-.017c0-.8-.711-1.095-1.378-1.305l-.087-.028c-.5-.163-.937-.3-.937-.635v-.018c0-.283.254-.492.647-.492a2.925,2.925,0,0,1,1.289.33s.1.063.134-.032c.02-.051.189-.506.206-.555a.1.1,0,0,0-.049-.114,2.877,2.877,0,0,0-1.453-.39h-.1a1.417,1.417,0,0,0-1.577,1.365v.017c0,.847.715,1.122,1.385,1.314l.108.033c.488.15.909.279.909.623v.017c0,.314-.273.548-.714.548a2.4,2.4,0,0,1-1.307-.376c-.071-.042-.113-.072-.168-.1a.08.08,0,0,0-.133.046Zm14.851,0c-.031.081.011.1.021.112a2.889,2.889,0,0,0,.282.171,3.012,3.012,0,0,0,1.479.346c1.014,0,1.644-.54,1.644-1.408v-.017c0-.8-.711-1.095-1.378-1.305l-.087-.028c-.5-.163-.937-.3-.937-.635v-.018c0-.283.254-.492.647-.492a2.926,2.926,0,0,1,1.289.33s.1.063.134-.032c.02-.051.189-.506.206-.555a.1.1,0,0,0-.049-.114,2.877,2.877,0,0,0-1.453-.39h-.1a1.417,1.417,0,0,0-1.577,1.365v.017c0,.847.715,1.122,1.385,1.314l.108.033c.488.15.91.279.91.623v.017c0,.314-.274.548-.715.548a2.4,2.4,0,0,1-1.307-.376c-.071-.042-.113-.07-.167-.1a.087.087,0,0,0-.134.046Zm10.138-1.7a2.087,2.087,0,0,1-.272,1.151.91.91,0,0,1-.824.4.9.9,0,0,1-.821-.4,2.6,2.6,0,0,1,0-2.3.9.9,0,0,1,.821-.4.915.915,0,0,1,.825.4,2.072,2.072,0,0,1,.271,1.147m.847-.91a2.038,2.038,0,0,0-.385-.736,1.863,1.863,0,0,0-.65-.495,2.358,2.358,0,0,0-1.815,0,1.873,1.873,0,0,0-.651.495,2.072,2.072,0,0,0-.385.736,3.4,3.4,0,0,0,0,1.82,2.049,2.049,0,0,0,.386.735,1.817,1.817,0,0,0,.65.49,2.409,2.409,0,0,0,1.815,0,1.818,1.818,0,0,0,.65-.49,2.039,2.039,0,0,0,.385-.735,3.383,3.383,0,0,0,0-1.82m6.954,2.332a.08.08,0,0,0-.108-.051,1.941,1.941,0,0,1-.394.113,3.068,3.068,0,0,1-.464.033,1.29,1.29,0,0,1-.969-.363,1.617,1.617,0,0,1-.364-1.157,1.794,1.794,0,0,1,.325-1.115,1.106,1.106,0,0,1,.94-.414,2.813,2.813,0,0,1,.895.128s.067.029.1-.058c.074-.206.129-.353.208-.579a.076.076,0,0,0-.052-.1,3.3,3.3,0,0,0-.565-.142,4.24,4.24,0,0,0-.635-.043,2.3,2.3,0,0,0-.944.182,1.954,1.954,0,0,0-.682.494,2.1,2.1,0,0,0-.412.735,2.928,2.928,0,0,0-.138.912,2.437,2.437,0,0,0,.564,1.686,2.143,2.143,0,0,0,1.672.629,3.445,3.445,0,0,0,1.2-.214.077.077,0,0,0,.035-.1l-.208-.574Zm1.482-1.893a1.665,1.665,0,0,1,.232-.676.912.912,0,0,1,.819-.416.889.889,0,0,1,.8.416,1.417,1.417,0,0,1,.19.676Zm2.851-.6a1.78,1.78,0,0,0-.367-.671,1.685,1.685,0,0,0-.544-.415,2.1,2.1,0,0,0-.821-.166,2.237,2.237,0,0,0-.946.184,1.883,1.883,0,0,0-.66.5,2.065,2.065,0,0,0-.388.744,3.218,3.218,0,0,0-.126.915,3.066,3.066,0,0,0,.13.915,1.84,1.84,0,0,0,1.136,1.206,2.886,2.886,0,0,0,1.041.168A3,3,0,0,0,182,285.93c.032-.018.062-.049.024-.137l-.187-.525a.082.082,0,0,0-.108-.049,2.767,2.767,0,0,1-1.177.211,1.173,1.173,0,0,1-1.315-1.291l2.867,0a.085.085,0,0,0,.083-.075,3.073,3.073,0,0,0-.085-1.235m-25.808.6a1.676,1.676,0,0,1,.232-.676.912.912,0,0,1,.819-.416.891.891,0,0,1,.8.416,1.425,1.425,0,0,1,.189.676Zm2.85-.6a1.779,1.779,0,0,0-.366-.671,1.685,1.685,0,0,0-.544-.415,2.1,2.1,0,0,0-.821-.166,2.239,2.239,0,0,0-.946.184,1.882,1.882,0,0,0-.66.5,2.065,2.065,0,0,0-.388.744,3.243,3.243,0,0,0-.126.915,3.065,3.065,0,0,0,.13.915,1.84,1.84,0,0,0,1.136,1.206,2.886,2.886,0,0,0,1.041.168,3,3,0,0,0,1.443-.287c.032-.018.062-.049.024-.137l-.187-.525a.083.083,0,0,0-.108-.049,2.766,2.766,0,0,1-1.177.211,1.173,1.173,0,0,1-1.314-1.291l2.867,0a.085.085,0,0,0,.083-.075,3.071,3.071,0,0,0-.086-1.235m-9.046,2.476a.58.58,0,0,1-.166-.17.693.693,0,0,1-.085-.373.627.627,0,0,1,.256-.555,1.285,1.285,0,0,1,.831-.207,5.877,5.877,0,0,1,.778.066v1.3h0a5.827,5.827,0,0,1-.774.1,1.288,1.288,0,0,1-.84-.168m1.141-2.014c-.116-.008-.267-.013-.447-.013a2.719,2.719,0,0,0-.706.091,1.843,1.843,0,0,0-.6.278,1.338,1.338,0,0,0-.569,1.134,1.5,1.5,0,0,0,.131.655,1.181,1.181,0,0,0,.374.448,1.568,1.568,0,0,0,.584.253,3.425,3.425,0,0,0,.759.077,5.168,5.168,0,0,0,.871-.073c.281-.048.626-.118.722-.139q.1-.024.2-.051a.09.09,0,0,0,.066-.094v-2.621a1.6,1.6,0,0,0-.456-1.265,1.95,1.95,0,0,0-1.317-.4,4.72,4.72,0,0,0-.768.071,2.769,2.769,0,0,0-.884.323.09.09,0,0,0-.025.114l.2.545a.072.072,0,0,0,.094.046.37.37,0,0,0,.047-.023,2.909,2.909,0,0,1,1.249-.291,1.154,1.154,0,0,1,.709.185c.156.12.236.3.236.683v.121c-.247-.035-.473-.056-.473-.056m23.12-1.477a.077.077,0,0,0-.043-.1,2.488,2.488,0,0,0-.48-.082,1.428,1.428,0,0,0-.739.119,1.3,1.3,0,0,0-.485.357v-.349a.083.083,0,0,0-.082-.087H171.8a.083.083,0,0,0-.082.087v4.275a.088.088,0,0,0,.087.087h.753a.087.087,0,0,0,.087-.087V283.9a2.5,2.5,0,0,1,.1-.752,1.083,1.083,0,0,1,.251-.422.88.88,0,0,1,.354-.213,1.38,1.38,0,0,1,.385-.054,1.609,1.609,0,0,1,.315.039c.055.006.086-.027.1-.077.049-.131.189-.523.216-.6" transform="translate(-137.318 -267.153)" fill="#fff"/>
      <path id="Path_690" data-name="Path 690" d="M332.253,244.736a2.459,2.459,0,0,0-.283-.068,2.247,2.247,0,0,0-.39-.03,1.642,1.642,0,0,0-1.214.435,2.369,2.369,0,0,0-.576,1.3l-.035.194H329.1a.1.1,0,0,0-.1.083l-.106.6c-.008.056.017.092.093.092h.633l-.643,3.587a4.439,4.439,0,0,1-.172.707,1.444,1.444,0,0,1-.2.408.533.533,0,0,1-.262.2,1.066,1.066,0,0,1-.337.049,1.268,1.268,0,0,1-.23-.025.678.678,0,0,1-.155-.05.079.079,0,0,0-.1.046c-.023.061-.192.525-.213.583a.087.087,0,0,0,.044.115,2.339,2.339,0,0,0,.262.077,1.737,1.737,0,0,0,.42.039,2.1,2.1,0,0,0,.7-.109,1.329,1.329,0,0,0,.53-.369,1.893,1.893,0,0,0,.372-.642,5.445,5.445,0,0,0,.252-.962l.646-3.654h.944a.1.1,0,0,0,.1-.084l.107-.6c.007-.057-.017-.092-.094-.092h-.917a3.983,3.983,0,0,1,.151-.647.846.846,0,0,1,.2-.306.6.6,0,0,1,.24-.149,1,1,0,0,1,.308-.044,1.2,1.2,0,0,1,.235.023c.089.019.123.029.147.036.094.028.106,0,.125-.044l.219-.6a.077.077,0,0,0-.053-.1m-12.806,6.2a.083.083,0,0,1-.082.087h-.76a.083.083,0,0,1-.082-.087v-6.118a.083.083,0,0,1,.082-.087h.76a.083.083,0,0,1,.082.087Z" transform="translate(-302.28 -232.053)" fill="#fff"/>
    </g>
    <path id="Path_691" data-name="Path 691" d="M335,368l-14.333-7.666v-14H352l9,4.333V356l-15,6Z" transform="translate(-43 -252)" fill="#00a1e0"/>
  </g>
</svg>
