<svg width="20" height="20" viewBox="0 0 20 20" fill="none" xmlns="http://www.w3.org/2000/svg">
<path d="M14.2777 17.8543V11.8037H6.72803V17.8543" stroke="#2964DC" stroke-linecap="round" stroke-linejoin="round"/>
<path d="M3.70801 4.75686V3.55561C3.70801 2.7202 4.38403 2.04297 5.21795 2.04297H13.5226L17.2975 5.82458V16.3087C17.2975 17.1441 16.6214 17.8213 15.7875 17.8213H5.21795C4.38403 17.8213 3.70801 17.1441 3.70801 16.3087C3.70801 13.731 3.70801 9.63316 3.70801 8.34431" stroke="#191F2D" stroke-linecap="round" stroke-linejoin="round"/>
<path fill-rule="evenodd" clip-rule="evenodd" d="M6.28302 2.38019C6.28302 2.38019 4.68563 2.67297 4.89841 4.08542C5.11118 5.49787 5.20986 5.42645 4.67325 5.79328C4.13663 6.1601 2.5 5.79328 2.5 3.53031C2.5 1.26735 5.89412 1.70012 6.28302 1.70012" fill="#191F2D"/>
</svg>
