<svg width="15" height="15" viewBox="0 0 15 15" fill="none" xmlns="http://www.w3.org/2000/svg">
<path d="M11.8325 13.9981C13.0291 13.9981 13.999 13.0281 13.999 11.8315C13.999 10.635 13.0291 9.66504 11.8325 9.66504C10.636 9.66504 9.66602 10.635 9.66602 11.8315C9.66602 13.0281 10.636 13.9981 11.8325 13.9981Z" stroke="#191F2D" stroke-linecap="round" stroke-linejoin="round"/>
<path d="M3.16651 5.33301C4.36304 5.33301 5.33301 4.36304 5.33301 3.16651C5.33301 1.96998 4.36304 1 3.16651 1C1.96998 1 1 1.96998 1 3.16651C1 4.36304 1.96998 5.33301 3.16651 5.33301Z" stroke="#054CA0" stroke-linecap="round" stroke-linejoin="round"/>
<path d="M8.22266 3.16553H10.3892C10.7722 3.16553 11.1396 3.3177 11.4105 3.58856C11.6813 3.85943 11.8335 4.2268 11.8335 4.60987V9.66505" stroke="#191F2D" stroke-linecap="round" stroke-linejoin="round"/>
<path d="M3.16797 5.33398V14" stroke="#054CA0" stroke-linecap="round" stroke-linejoin="round"/>
</svg>
