<svg width="20" height="20" viewBox="0 0 20 20" fill="none" xmlns="http://www.w3.org/2000/svg">
<path d="M18.2869 12.2222L18.2869 15.7407C18.2869 16.2073 18.1016 16.6548 17.7717 16.9847C17.4417 17.3146 16.9943 17.5 16.5277 17.5L4.21287 17.5C3.74629 17.5 3.29881 17.3147 2.96889 16.9847C2.63896 16.6548 2.45361 16.2073 2.45361 15.7407L2.45361 14.1663" stroke="#191F2D" stroke-linecap="round" stroke-linejoin="round"/>
<path fill-rule="evenodd" clip-rule="evenodd" d="M2.76833 15.4638C2.7306 14.9174 2.99979 13.8832 3.82371 14.0535C4.64764 14.2239 5.02922 13.9645 5.33638 13.5394C5.64353 13.1144 5.51838 11.9252 4.30623 11.8251C3.09409 11.725 1.65577 12.0423 2.08816 15.5432" fill="#191F2D"/>
<path d="M5.97226 6.89746L10.3704 2.49931L14.7686 6.89746" stroke="#2964DC" stroke-linecap="round" stroke-linejoin="round"/>
<path d="M10.3706 2.49913L10.3706 13.0547" stroke="#2964DC" stroke-linecap="round" stroke-linejoin="round"/>
</svg>
